<?xml version="1.0" encoding="utf-8" ?><svg xmlns="http://www.w3.org/2000/svg" xmlns:xlink="http://www.w3.org/1999/xlink" width="1024" height="1024" viewBox="0 0 1024 1024"><path fill="#60B4C8" d="M236.065 436.709C239.647 412.43 271.531 418.949 267.746 440.186C266.889 444.898 264.165 449.063 260.192 451.738C250.982 457.835 242.934 452.265 237.805 444.147C211.327 450.966 187.83 459.95 167.322 478.785C167.971 480.21 168.578 481.654 169.142 483.114C172.095 490.818 171.289 496.21 168.111 503.443C179.648 508.706 198.38 515.731 210.357 518.73C207.004 513.497 198.284 503.973 193.846 498.59C185.502 497.616 177.787 493.589 182.254 483.856C183.688 480.767 186.337 478.409 189.571 477.343C197.383 474.778 201.898 479.761 203.598 486.855C202.799 490.895 202.236 491.887 200.307 495.382C206.105 501.666 209.134 506.383 215.707 512.871C229.36 508.705 241.389 512.398 248.483 525.257C244.96 533.208 243.723 535.862 237.869 542.311C236.688 534.191 234.518 531.409 226.49 529.179C214.231 532.381 215.728 536.04 211.892 546.439C211.551 547.361 208.473 550.815 207.627 551.782C201.322 543.741 200.229 534.611 204.849 525.494C191.708 520.559 175.653 513.723 162.594 509.592C166.673 516.314 175.472 526.004 180.669 533.584C185.323 534.536 191.695 536.233 193.12 541.567C194.836 547.988 191.471 553.845 184.919 555.364C181.493 556.156 177.892 555.506 174.958 553.568C168.14 549.023 170.445 542.092 174.676 536.735C169.007 529.395 163.17 522.188 157.168 515.118C154.886 515.935 152.827 516.667 150.414 517.092C144.078 518.275 137.535 516.778 132.344 512.957C126.878 508.962 122.941 502.499 122.094 495.765C121.219 488.815 123.729 481.854 127.932 476.376C141.014 459.323 214.382 439.685 236.065 436.709Z"/><path fill="#60B4C8" d="M317.691 476.487C328.682 476.451 339.67 476.373 350.663 476.489C360.733 476.596 370.257 480.601 372.352 491.433C373.825 499.049 369.435 504.345 364.322 509.254C375.523 515.232 378.666 523.162 373.929 535.107C364.538 547.446 348.684 545.295 335.035 544.969C329.194 544.83 323.35 544.836 317.508 544.987C317.439 522.569 317.287 498.846 317.691 476.487ZM332.45 531.966C340.572 531.701 351.302 533.138 358.259 529.596C365 522.548 359.621 517.73 351.876 516.621C345.65 515.729 338.604 515.998 332.29 515.984C332.246 521.312 332.299 526.64 332.45 531.966ZM331.981 504.007C338.741 504.065 350.125 505.015 355.542 501.502C365.606 486.804 339.504 489.322 332.107 489.457C332.078 494.173 332.155 499.331 331.981 504.007Z"/><path fill="#609DC4" d="M248.483 525.257C260.073 549.443 236.681 563.049 217.998 571.444C202.076 578.599 185.108 583.066 168.21 587.241C158.254 589.675 147.01 592.476 136.844 593.761C134.601 602.716 129.352 611.224 118.52 608.373C113.697 607.104 109.547 604.553 107.014 600.08C104.893 596.307 104.424 591.827 105.717 587.696C110.111 573.953 127.589 571.449 135.55 585.934C157.256 581.33 179.355 574.746 197.344 561.334C200.288 559.14 205.487 554.812 207.627 551.782C208.473 550.815 211.551 547.361 211.892 546.439C215.728 536.04 214.231 532.381 226.49 529.179C234.518 531.409 236.688 534.191 237.869 542.311C243.723 535.862 244.96 533.208 248.483 525.257Z"/><path fill="#60B4C8" d="M563.713 492.041C596.952 489.04 600.025 539.689 571.325 545.876C564.82 547.278 556.677 542.962 551.47 538.977L551.524 548.875L551.514 561.332C548.257 561.038 540.439 561.37 536.854 561.42C537.349 545.254 536.636 528.708 536.939 512.502C537.057 506.205 537.15 498.88 536.516 492.695C541.87 492.822 546.177 492.811 551.559 492.605L551.458 499.557C555.531 495.217 557.682 493.335 563.713 492.041ZM565.41 533.012C582.454 527.399 578.388 503.864 562.132 504.524C557.405 506.612 554.159 508.813 552.236 514.005C550.827 517.786 551.01 521.978 552.745 525.621C555.201 530.676 559.992 532.916 565.41 533.012Z"/><path fill="#60B4C8" d="M896.078 499.772C903.387 491.265 917.946 488.488 925.489 496.437C933.888 505.288 930.778 533.756 930.54 544.916C925.692 544.818 920.536 544.603 915.721 544.907C916.177 536.45 920.149 494.996 902.149 507.011C896.372 510.868 898.177 535.259 898.348 542.217C898.316 542.807 898.203 543.63 898.136 544.233C895.978 545.624 887.811 544.678 884.228 544.876L883.554 544.918C883.404 536.693 887.41 503.781 874.833 504.713C862.811 505.603 865.717 536.183 866.35 545.002C861.548 544.838 856.295 544.938 851.457 544.934C850.897 528.735 851.184 509.138 851.33 492.736C856.379 492.882 861.431 492.89 866.48 492.759C866.314 495.201 866.31 497.662 866.271 500.111C870.5 495.301 871.795 493.619 878.229 492.298C886.976 491.205 890.71 493.277 896.078 499.772Z"/><path fill="#60B4C8" d="M435.324 491.199C450.67 489.321 464.612 500.292 466.396 515.648C468.181 531.005 457.127 544.88 441.759 546.572C426.523 548.249 412.792 537.309 411.022 522.083C409.253 506.857 420.11 493.06 435.324 491.199ZM441.706 532.779C446.154 530.868 449.142 529.167 451.187 524.3C452.665 520.788 452.647 516.825 451.139 513.325C449.582 509.755 446.641 506.971 442.991 505.611C441.062 504.879 438.323 504.507 436.24 504.541C431.726 506.482 428.59 508.439 426.515 513.296C424.965 516.897 424.961 520.976 426.504 524.58C429.154 530.765 435.228 533.504 441.706 532.779Z"/><path fill="#60B4C8" d="M495.137 475.653C507.261 474.926 515.653 476.691 525.344 484.324C522.731 487.473 519.576 491.87 517.626 495.428C511.678 491.439 499.419 484.806 492.371 490.83C490.876 492.108 490.206 493.422 490.153 495.428C494.188 506.154 528.227 502.461 527.275 524.443C526.539 541.42 515.586 545.634 500.775 545.799C488.049 544.642 482.66 543.099 472.784 534.656L481.688 524.146C489.747 530.186 503.335 538.204 512.068 528.478C514.6 521.609 502.062 517.671 496.971 516.76C480.054 513.734 469.163 502.174 478.605 484.976C481.706 479.327 488.992 477.012 495.137 475.653Z"/><path fill="#60B4C8" d="M622.765 491.711C644.889 490.389 647.684 507.348 649.512 524.049C637.162 523.834 624.328 523.992 611.941 523.976C618.138 536.766 627.247 536.454 637.68 528.799L642.57 532.588C643.428 533.204 646.219 535.825 647.161 536.664C636.287 545.906 621.787 550.354 609.116 541.36C603.008 536.964 598.98 530.246 597.98 522.786C595.583 506.049 606.109 493.481 622.765 491.711ZM612.134 514.554C616.663 514.567 622.432 514.433 626.875 514.601L635.12 515.091C632.232 507.059 629.918 502.609 620.26 504.13C614.542 506.987 614.349 508.581 612.134 514.554Z"/><path fill="#60B4C8" d="M213.456 395.962C215.218 397.782 216.934 399.646 218.601 401.554C209.062 411.001 200.737 417.862 188.994 424.426C189.37 430.865 188.386 436.26 182.942 440.53C179.856 442.959 175.917 444.033 172.025 443.507C167.492 442.86 164.361 440.224 161.715 436.686C157.335 438.567 150.836 442.532 146.699 445.074C129.526 455.627 117.022 466.064 108.801 484.883C113.778 490.283 116.361 498.121 108.238 502.061C105.431 503.41 102.198 503.57 99.2714 502.505C96.7394 501.607 94.7219 499.654 93.7419 497.152C90.6792 489.44 95.2367 485.848 101.653 483.199C113.642 455.917 133.574 443.753 158.828 430.3C161.485 414.485 171.704 407.312 185.314 418.351C194.92 413.334 206.422 404.164 213.456 395.962ZM175.256 436.704C179.847 436.137 183.095 431.934 182.485 427.348C181.875 422.762 177.642 419.553 173.062 420.206C168.542 420.85 165.384 425.015 165.986 429.541C166.588 434.068 170.724 437.263 175.256 436.704Z"/><path fill="#60B4C8" d="M264.839 543.837C261.395 540.585 260.399 539.297 259.824 534.519C258.748 525.588 271.815 521.245 277.024 527.285C284.151 535.549 278.752 541.73 271.193 545.24C259.228 571.324 238.104 587.995 212.129 599.247C212.379 604.294 211.812 608.269 208.236 612.205C205.483 615.223 201.583 616.937 197.498 616.924C192.364 616.923 189.003 614.811 185.482 611.389C175.778 617.841 169.253 620.015 160.889 629.078C158.737 626.911 156.868 625.131 154.592 623.096C163.576 616.542 173 609.681 183.005 604.712C182.18 600.27 182.589 596.708 185.355 592.882C187.68 589.697 191.167 587.558 195.059 586.929C199.035 586.299 203.095 587.322 206.297 589.759C207.512 590.7 208.572 591.827 209.617 592.949C233.358 580.417 251.972 568.892 264.839 543.837ZM198.255 610.165C202.805 609.694 206.106 605.616 205.621 601.068C205.135 596.52 201.047 593.232 196.5 593.733C191.975 594.231 188.705 598.296 189.189 602.823C189.672 607.35 193.727 610.633 198.255 610.165Z"/><path fill="#60B4C8" d="M792.21 492.691C796.983 492.961 801.705 492.877 806.482 492.845C806.388 497.267 802.159 544.572 821.394 530.161C827.035 525.935 825.359 501.959 825.093 492.792C830.065 492.858 835.037 492.892 840.01 492.897L840 510.375L840.01 544.698C835.145 544.495 830.38 544.784 825.501 544.48C824.478 542.995 824.941 541.635 824.939 539.423C821.632 539.592 817.227 547.219 807.611 545.9C789.792 543.456 791.982 526.576 791.997 512.965C792.005 506.198 791.388 498.997 792.21 492.691Z"/><path fill="#60B4C8" d="M681.77 491.683C692.386 490.934 697.512 494.219 705.138 501.143C701.826 503.818 698.637 507.152 695.602 510.177C691.213 505.958 689.097 505.013 683.326 504.077C667.53 508.748 665.971 525.879 680.767 533.097C685.293 535.305 691.659 530.216 695.745 527.945C697.845 528.399 697.564 528.667 699.43 530.335L705.414 536.082C700.615 540.532 694.984 544.271 688.49 545.627C681.209 547.205 673.599 545.697 667.469 541.463C661.612 537.434 657.609 531.229 656.352 524.232C654.447 513.099 659.358 500.428 669.669 495.132C673.931 492.943 677.105 492.392 681.77 491.683Z"/><path fill="#60B4C8" d="M716.061 478.996L731.037 478.932L730.983 492.932C735.164 492.737 739.349 492.63 743.535 492.612C743.496 496.824 743.54 501.037 743.669 505.248C739.602 505.23 735.136 505.432 731.004 505.481C730.399 511.464 729.959 521.111 730.864 526.954C731.916 533.747 739.017 532.126 743.396 531.074L743.521 537.849C743.532 540.249 743.793 541.035 742.264 543.106C738.577 548.145 722.869 546.139 719.882 541.793C713.973 533.197 715.82 515.416 716.008 505.475C713.72 505.521 711.535 505.348 709.252 505.21C709.391 501.166 709.493 497.122 709.559 493.077L716.072 493.082L716.061 478.996Z"/><path fill="#60B4C8" d="M782.55 491.655C782.77 491.679 783.635 492.023 783.882 492.113C785.311 494.641 784.651 503.723 784.546 507.103C763.022 509.01 767.947 527.898 767.98 544.508C763.059 544.566 758.011 544.55 753.112 544.888L753.074 538.625C752.731 523.728 753.045 507.619 753.05 492.625C758.039 492.736 763.029 492.715 768.017 492.562C767.914 496.054 767.774 499.544 767.599 503.033C771.553 495.251 774.097 493.048 782.55 491.655Z"/><path fill="#60B4C8" d="M385.806 492.605C390.848 492.614 395.89 492.662 400.931 492.747C400.8 499.14 402.256 541.329 400.326 544.67C395.807 544.526 390.575 544.654 385.998 544.651L385.806 492.605Z"/><path fill="#609DC4" d="M160.889 629.078C161.363 633.476 161.641 638.518 157.833 641.528C144.468 652.093 132.182 633.502 143.624 623.796C146.562 621.304 151.084 622.359 154.592 623.096C156.868 625.131 158.737 626.911 160.889 629.078Z"/><path fill="#609DC4" d="M213.456 395.962C212.92 388.953 213.213 380.558 222.511 380.064C225.845 379.888 229.096 381.139 231.451 383.506C238.728 390.748 234.212 398.764 225.861 402.355C223.67 402.126 219.853 401.089 218.601 401.554C216.934 399.646 215.218 397.782 213.456 395.962Z"/><path fill="#60B4C8" d="M385.932 473.302L401.047 473.487L401.02 487.009L385.501 486.995C385.677 482.432 385.82 477.868 385.932 473.302Z"/></svg>