<?xml version="1.0" encoding="utf-8" ?><svg xmlns="http://www.w3.org/2000/svg" xmlns:xlink="http://www.w3.org/1999/xlink" width="120" height="40" viewBox="0 0 120 40"><clipPath id="cl_4"><rect width="120" height="40"/></clipPath><g clip-path="url(#cl_4)"><path fill="#60B4C8" transform="scale(0.0379507 0.0390625)" d="M627.981 245.081C640.764 159.939 754.543 182.8 741.036 257.274C737.977 273.798 728.257 288.404 714.079 297.785C681.213 319.166 652.493 299.633 634.19 271.165C539.703 295.078 455.853 326.583 382.67 392.633C384.986 397.63 387.152 402.694 389.164 407.814C399.702 434.831 396.826 453.739 385.485 479.104C426.655 497.56 493.501 522.196 536.241 532.712C524.276 514.361 493.158 480.962 477.321 462.085C447.545 458.67 420.014 444.548 435.955 410.416C441.072 399.584 450.525 391.315 462.066 387.576C489.943 378.582 506.055 396.056 512.122 420.933C509.27 435.1 507.261 438.579 500.378 450.836C521.068 472.872 531.877 489.414 555.333 512.166C604.054 497.557 646.98 510.507 672.295 555.601C659.723 583.484 655.309 592.791 634.419 615.406C630.204 586.931 622.461 577.175 593.812 569.355C550.066 580.584 555.408 593.415 541.719 629.882C540.502 633.116 529.518 645.228 526.499 648.619C504 620.421 500.099 588.404 516.586 556.432C469.692 539.126 412.399 515.154 365.798 500.667C380.354 524.24 411.753 558.221 430.299 584.802C446.907 588.141 469.645 594.092 474.731 612.797C480.854 635.314 468.846 655.854 445.465 661.181C433.239 663.958 420.389 661.678 409.919 654.882C385.589 638.944 393.814 614.638 408.913 595.852C388.683 570.112 367.853 544.839 346.435 520.046C338.291 522.911 330.944 525.478 322.333 526.968C299.723 531.117 276.374 525.867 257.85 512.468C238.344 498.458 224.295 475.793 221.272 452.179C218.15 427.806 227.107 403.396 242.105 384.185C288.789 324.384 550.605 255.517 627.981 245.081Z"/><path fill="#60B4C8" transform="scale(0.0379507 0.0390625)" d="M919.266 384.575C958.488 384.448 997.699 384.175 1036.93 384.582C1072.86 384.957 1106.85 399.002 1114.33 436.987C1119.58 463.695 1103.92 482.267 1085.67 499.482C1125.64 520.446 1136.86 548.254 1119.95 590.143C1086.44 633.414 1029.87 625.87 981.159 624.727C960.315 624.24 939.46 624.261 918.613 624.79C918.367 546.175 917.824 462.983 919.266 384.575ZM971.934 579.128C1000.92 578.199 1039.21 583.238 1064.03 570.817C1088.09 546.101 1068.89 529.205 1041.26 525.316C1019.04 522.188 993.895 523.132 971.363 523.083C971.206 541.767 971.395 560.451 971.934 579.128ZM970.26 481.082C994.383 481.285 1035.01 484.617 1054.34 472.297C1090.25 420.754 997.106 429.584 970.71 430.058C970.606 446.596 970.881 464.684 970.26 481.082Z"/><path fill="#609DC4" transform="scale(0.0379507 0.0390625)" d="M672.295 555.601C713.654 640.417 630.179 688.13 563.508 717.57C506.69 742.661 446.139 758.326 385.838 772.967C350.31 781.502 310.186 791.325 273.908 795.831C265.904 827.234 247.173 857.07 208.518 847.072C191.307 842.622 176.498 833.676 167.459 817.991C159.89 804.759 158.216 789.049 162.83 774.562C178.51 726.368 240.881 717.587 269.29 768.383C346.749 752.238 425.61 729.149 489.804 682.116C500.31 674.422 518.863 659.245 526.499 648.619C529.518 645.228 540.502 633.116 541.719 629.882C555.408 593.415 550.066 580.584 593.812 569.355C622.461 577.175 630.204 586.931 634.419 615.406C655.309 592.791 659.723 583.484 672.295 555.601Z"/><path fill="#60B4C8" transform="scale(0.0379507 0.0390625)" d="M1797.2 439.119C1915.82 428.595 1926.78 606.211 1824.37 627.908C1801.15 632.824 1772.09 617.689 1753.51 603.714L1753.71 638.425L1753.67 682.109C1742.05 681.078 1714.15 682.242 1701.36 682.418C1703.12 625.727 1700.58 567.703 1701.66 510.872C1702.08 488.79 1702.41 463.102 1700.15 441.413C1719.26 441.858 1734.63 441.82 1753.83 441.097L1753.47 465.476C1768.01 450.257 1775.68 443.657 1797.2 439.119ZM1803.26 582.797C1864.08 563.113 1849.57 480.58 1791.56 482.895C1774.69 490.217 1763.11 497.935 1756.25 516.143C1751.22 529.402 1751.87 544.103 1758.06 556.878C1766.83 574.605 1783.92 582.46 1803.26 582.797Z"/><path fill="#60B4C8" transform="scale(0.0379507 0.0390625)" d="M2983.26 466.23C3009.34 436.398 3061.29 426.66 3088.21 454.535C3118.18 485.574 3107.09 585.405 3106.24 624.542C3088.94 624.198 3070.54 623.444 3053.35 624.51C3054.98 594.853 3069.16 449.482 3004.92 491.616C2984.31 505.142 2990.75 590.676 2991.36 615.076C2991.24 617.146 2990.84 620.032 2990.6 622.146C2982.9 627.024 2953.76 623.707 2940.97 624.401L2938.56 624.548C2938.03 595.705 2952.33 480.289 2907.44 483.558C2864.54 486.679 2874.91 593.917 2877.17 624.843C2860.04 624.268 2841.29 624.619 2824.03 624.605C2822.03 567.798 2823.05 499.075 2823.57 441.557C2841.59 442.068 2859.62 442.097 2877.64 441.637C2877.04 450.201 2877.03 458.831 2876.89 467.419C2891.98 450.552 2896.6 444.653 2919.56 440.021C2950.78 436.188 2964.1 443.454 2983.26 466.23Z"/><path fill="#60B4C8" transform="scale(0.0379507 0.0390625)" d="M1339.04 436.167C1393.81 429.581 1443.56 468.054 1449.92 521.904C1456.29 575.758 1416.85 624.415 1362.01 630.349C1307.64 636.23 1258.64 597.865 1252.32 544.471C1246.01 491.076 1284.75 442.693 1339.04 436.167ZM1361.82 581.979C1377.69 575.278 1388.35 569.313 1395.65 552.245C1400.92 539.929 1400.86 526.032 1395.48 513.758C1389.92 501.239 1379.43 491.476 1366.4 486.707C1359.52 484.14 1349.74 482.835 1342.31 482.954C1326.2 489.761 1315.01 496.624 1307.61 513.656C1302.08 526.284 1302.06 540.589 1307.57 553.227C1317.03 574.917 1338.7 584.522 1361.82 581.979Z"/><path fill="#60B4C8" transform="scale(0.0379507 0.0390625)" d="M1552.49 381.65C1595.75 379.1 1625.7 385.29 1660.28 412.057C1650.96 423.1 1639.7 438.52 1632.74 450.997C1611.51 437.008 1567.77 413.748 1542.62 434.873C1537.28 439.354 1534.89 443.962 1534.7 450.997C1549.1 488.611 1670.57 475.66 1667.17 552.747C1664.55 612.282 1625.46 627.059 1572.61 627.638C1527.19 623.581 1507.96 618.17 1472.72 588.562L1504.49 551.705C1533.25 572.886 1581.74 601.004 1612.91 566.897C1621.94 542.808 1577.2 528.999 1559.03 525.804C1498.66 515.192 1459.8 474.654 1493.49 414.344C1504.56 394.534 1530.56 386.416 1552.49 381.65Z"/><path fill="#60B4C8" transform="scale(0.0379507 0.0390625)" d="M2007.93 437.962C2086.88 433.326 2096.86 492.798 2103.38 551.365C2059.31 550.611 2013.51 551.165 1969.31 551.109C1991.42 595.961 2023.93 594.867 2061.16 568.022L2078.61 581.31C2081.67 583.47 2091.63 592.661 2094.99 595.603C2056.19 628.013 2004.44 643.611 1959.22 612.071C1937.43 596.655 1923.05 573.097 1919.49 546.936C1910.93 488.243 1948.49 444.169 2007.93 437.962ZM1969.99 518.068C1986.16 518.114 2006.74 517.644 2022.6 518.233L2052.02 519.951C2041.71 491.784 2033.46 476.179 1998.99 481.513C1978.59 491.532 1977.9 497.122 1969.99 518.068Z"/><path fill="#60B4C8" transform="scale(0.0379507 0.0390625)" d="M547.3 102.19C553.588 108.572 559.711 115.109 565.66 121.799C531.62 154.928 501.912 178.988 460.007 202.007C461.349 224.587 457.837 243.507 438.41 258.481C427.398 266.999 413.341 270.765 399.452 268.92C383.276 266.651 372.103 257.407 362.661 245C347.031 251.597 323.839 265.501 309.076 274.416C247.793 311.423 203.173 348.023 173.836 414.018C191.596 432.954 200.814 460.441 171.827 474.257C161.81 478.988 150.273 479.549 139.829 475.815C130.793 472.665 123.594 465.817 120.097 457.043C109.167 429.998 125.431 417.402 148.328 408.112C191.111 312.44 262.239 269.783 352.359 222.606C361.84 167.146 398.307 141.992 446.875 180.703C481.154 163.11 522.199 130.952 547.3 102.19ZM410.982 245.064C427.365 243.075 438.956 228.336 436.779 212.254C434.602 196.172 419.497 184.918 403.153 187.208C387.023 189.467 375.754 204.073 377.902 219.944C380.05 235.82 394.81 247.024 410.982 245.064Z"/><path fill="#60B4C8" transform="scale(0.0379507 0.0390625)" d="M730.662 620.757C718.372 609.354 714.818 604.837 712.766 588.081C708.926 556.762 755.556 541.532 774.144 562.713C799.577 591.693 780.311 613.369 753.336 625.678C710.639 717.149 635.257 775.611 542.565 815.069C543.457 832.768 541.433 846.708 528.672 860.511C518.848 871.094 504.931 877.105 490.354 877.059C472.033 877.056 460.039 869.649 447.474 857.649C412.845 880.275 389.56 887.899 359.713 919.681C352.034 912.081 345.364 905.839 337.242 898.703C369.302 875.719 402.932 851.659 438.635 834.234C435.691 818.657 437.15 806.166 447.021 792.749C455.318 781.579 467.761 774.078 481.65 771.873C495.838 769.663 510.327 773.251 521.753 781.797C526.089 785.097 529.871 789.049 533.601 792.984C618.321 749.036 684.746 708.62 730.662 620.757ZM493.055 853.357C509.292 851.705 521.071 837.404 519.341 821.455C517.606 805.506 503.018 793.976 486.792 795.733C470.645 797.479 458.975 811.734 460.703 827.61C462.426 843.485 476.897 854.998 493.055 853.357Z"/><path fill="#60B4C8" transform="scale(0.0379507 0.0390625)" d="M2612.6 441.399C2629.63 442.346 2646.48 442.051 2663.53 441.939C2663.2 457.446 2648.1 623.335 2716.75 572.799C2736.88 557.979 2730.89 473.9 2729.95 441.753C2747.69 441.984 2765.43 442.104 2783.18 442.121L2783.14 503.413L2783.18 623.777C2765.82 623.065 2748.81 624.078 2731.4 623.012C2727.75 617.805 2729.4 613.036 2729.4 605.278C2717.59 605.871 2701.88 632.618 2667.56 627.992C2603.97 619.422 2611.79 560.227 2611.84 512.496C2611.87 488.765 2609.67 463.513 2612.6 441.399Z"/><path fill="#60B4C8" transform="scale(0.0379507 0.0390625)" d="M2218.49 437.864C2256.38 435.237 2274.67 446.757 2301.88 471.038C2290.06 480.419 2278.68 492.111 2267.85 502.719C2252.19 487.923 2244.64 484.61 2224.05 481.327C2167.68 497.707 2162.11 557.783 2214.91 583.094C2231.06 590.838 2253.78 572.991 2268.36 565.027C2275.86 566.62 2274.85 567.559 2281.51 573.409L2302.87 593.562C2285.74 609.167 2265.65 622.28 2242.47 627.035C2216.49 632.568 2189.33 627.28 2167.46 612.432C2146.56 598.304 2132.27 576.544 2127.79 552.007C2120.99 512.966 2138.51 468.531 2175.31 449.959C2190.52 442.282 2201.85 440.35 2218.49 437.864Z"/><path fill="#60B4C8" transform="scale(0.0379507 0.0390625)" d="M2340.86 393.373L2394.3 393.149L2394.11 442.244C2409.03 441.56 2423.97 441.185 2438.9 441.122C2438.76 455.892 2438.92 470.667 2439.38 485.434C2424.87 485.371 2408.93 486.079 2394.19 486.251C2392.03 507.232 2390.46 541.062 2393.69 561.552C2397.44 585.374 2422.78 579.689 2438.41 576L2438.85 599.759C2438.89 608.175 2439.82 610.931 2434.37 618.194C2421.21 635.865 2365.16 628.83 2354.5 613.59C2333.41 583.445 2340 521.091 2340.67 486.23C2332.51 486.391 2324.71 485.784 2316.56 485.3C2317.06 471.119 2317.42 456.937 2317.66 442.752L2340.9 442.77L2340.86 393.373Z"/><path fill="#60B4C8" transform="scale(0.0379507 0.0390625)" d="M2578.13 437.766C2578.91 437.85 2582 439.056 2582.88 439.372C2587.98 448.237 2585.63 480.086 2585.25 491.939C2508.44 498.626 2526.02 564.863 2526.14 623.111C2508.57 623.314 2490.56 623.258 2473.08 624.443L2472.94 602.48C2471.72 550.239 2472.84 493.748 2472.86 441.167C2490.66 441.557 2508.47 441.483 2526.27 440.946C2525.9 453.192 2525.4 465.431 2524.78 477.666C2538.89 450.376 2547.96 442.651 2578.13 437.766Z"/><path fill="#60B4C8" transform="scale(0.0379507 0.0390625)" d="M1162.34 441.097C1180.33 441.129 1198.32 441.297 1216.31 441.595C1215.84 464.014 1221.04 611.962 1214.15 623.679C1198.03 623.174 1179.35 623.623 1163.02 623.612L1162.34 441.097Z"/><path fill="#609DC4" transform="scale(0.0379507 0.0390625)" d="M359.713 919.681C361.405 935.104 362.397 952.785 348.808 963.34C301.114 1000.39 257.271 935.195 298.103 901.158C308.587 892.419 324.724 896.119 337.242 898.703C345.364 905.839 352.034 912.081 359.713 919.681Z"/><path fill="#609DC4" transform="scale(0.0379507 0.0390625)" d="M547.3 102.19C545.387 77.6104 546.433 48.1708 579.613 46.4384C591.511 45.8212 603.112 50.2083 611.516 58.5089C637.484 83.905 621.369 112.016 591.568 124.609C583.749 123.805 570.128 120.169 565.66 121.799C559.711 115.109 553.588 108.572 547.3 102.19Z"/><path fill="#60B4C8" transform="scale(0.0379507 0.0390625)" d="M1162.79 373.405L1216.72 374.054L1216.63 421.473L1161.25 421.424C1161.88 405.422 1162.39 389.417 1162.79 373.405Z"/></g></svg>