<?xml version="1.0" encoding="utf-8" ?><svg xmlns="http://www.w3.org/2000/svg" xmlns:xlink="http://www.w3.org/1999/xlink" width="34" height="42" viewBox="0 0 34 42"><clipPath id="cl_7"><rect width="34" height="41.96875"/></clipPath><g clip-path="url(#cl_7)"><path fill="#60B4C8" transform="scale(0.0332031 0.0332031)" d="M846.989 302.691C862.428 215.07 732.38 188.173 717.77 288.345C629.33 300.623 330.08 381.648 276.721 452.005C259.579 474.607 249.341 503.327 252.909 532.002C256.365 559.785 272.422 586.451 294.717 602.934C315.89 618.698 342.577 624.875 368.42 619.994C378.262 618.241 386.66 615.221 395.968 611.85C420.449 641.019 444.257 670.754 467.379 701.038C450.122 723.14 440.72 751.737 468.529 770.488C480.496 778.484 495.184 781.167 509.158 777.899C535.882 771.632 549.607 747.466 542.608 720.974C536.795 698.967 510.806 691.966 491.823 688.037C470.625 656.764 434.737 616.784 418.1 589.05C471.364 606.094 536.849 634.298 590.447 654.659C571.603 692.275 576.062 729.944 601.778 763.12C605.228 759.13 617.783 744.88 619.174 741.075C634.82 698.171 628.714 683.074 678.715 669.863C711.46 679.064 720.311 690.542 725.128 724.044C749.005 697.436 754.05 686.486 768.42 653.681C739.485 600.627 690.422 585.391 634.734 602.579C607.925 575.81 595.57 556.348 571.922 530.422C579.789 516.001 582.085 511.908 585.345 495.24C578.411 465.972 559.995 445.413 528.132 455.995C514.941 460.394 504.136 470.123 498.288 482.867C480.068 523.024 511.535 539.639 545.568 543.657C563.67 565.866 599.237 605.161 612.913 626.752C564.062 614.379 487.658 585.394 440.602 563.68C453.564 533.838 456.851 511.592 444.807 479.805C442.507 473.782 440.031 467.824 437.384 461.944C521.031 384.235 616.87 347.168 724.866 319.034C745.786 352.527 778.613 375.508 816.178 350.353C832.383 339.316 843.493 322.132 846.989 302.691Z"/><path fill="#609DC4" transform="scale(0.0332031 0.0332031)" d="M644.078 844.243C720.282 809.606 815.692 753.47 768.42 653.681C754.05 686.486 749.005 697.436 725.128 724.044C720.311 690.542 711.46 679.064 678.715 669.863C628.714 683.074 634.82 698.171 619.174 741.075C617.783 744.88 605.228 759.13 601.778 763.12C593.05 775.622 571.844 793.478 559.836 802.53C486.464 857.866 396.327 885.031 307.793 904.026C275.322 844.263 204.033 854.594 186.111 911.295C180.838 928.34 182.751 946.823 191.402 962.391C201.734 980.845 218.66 991.37 238.332 996.606C282.514 1008.37 303.923 973.266 313.071 936.319C354.536 931.018 400.397 919.461 441.005 909.419C509.928 892.193 579.137 873.763 644.078 844.243Z"/><path fill="#60B4C8" transform="scale(0.0332031 0.0332031)" d="M646.538 143.3C639.738 135.429 632.74 127.738 625.553 120.23C596.863 154.069 549.949 191.904 510.769 212.603C455.257 167.058 413.576 196.652 402.739 261.903C299.734 317.408 218.436 367.595 169.536 480.156C143.365 491.086 124.776 505.906 137.268 537.725C141.265 548.048 149.494 556.105 159.822 559.811C171.759 564.204 184.946 563.544 196.395 557.978C229.526 541.723 218.99 509.383 198.691 487.105C232.223 409.46 283.222 366.398 353.268 322.859C370.141 312.37 396.65 296.011 414.514 288.25C425.306 302.847 438.077 313.723 456.566 316.392C472.44 318.563 488.507 314.132 501.094 304.111C523.299 286.493 527.313 264.233 525.779 237.667C573.675 210.585 607.631 182.277 646.538 143.3ZM499.23 249.723C501.718 268.644 488.47 285.985 469.744 288.325C451.26 290.631 434.39 277.449 431.934 258.771C429.479 240.098 442.36 222.914 460.796 220.256C479.477 217.562 496.741 230.802 499.23 249.723Z"/><path fill="#60B4C8" transform="scale(0.0332031 0.0332031)" d="M814.677 691.895C817.023 711.609 821.085 716.923 835.132 730.339C782.651 833.713 706.729 881.263 609.895 932.969C605.632 928.34 601.309 923.69 596.353 919.808C583.294 909.753 566.733 905.532 550.516 908.132C534.641 910.726 520.419 919.551 510.936 932.693C499.654 948.479 497.986 963.174 501.351 981.501C460.543 1002 422.105 1030.31 385.461 1057.35C394.744 1065.75 402.368 1073.09 411.145 1082.03C445.259 1044.64 471.874 1035.67 511.454 1009.05C525.815 1023.17 539.524 1031.88 560.465 1031.89C577.126 1031.94 593.033 1024.87 604.262 1012.42C618.847 996.177 621.16 979.777 620.141 958.953C726.086 912.53 812.246 843.747 861.048 736.129C891.88 721.647 913.901 696.145 884.831 662.049C863.585 637.129 810.288 655.047 814.677 691.895ZM593.596 966.466C595.574 985.231 582.111 1002.06 563.552 1004C545.084 1005.93 528.544 992.385 526.574 973.708C524.599 955.029 537.938 938.258 556.393 936.204C574.94 934.137 591.613 947.702 593.596 966.466Z"/><path fill="#609DC4" transform="scale(0.0332031 0.0332031)" d="M398.681 1133.4C414.213 1120.98 413.079 1100.18 411.145 1082.03C402.368 1073.09 394.744 1065.75 385.461 1057.35C385.011 1057.26 384.557 1057.16 384.1 1057.06C370 1054.05 352.332 1050.28 340.726 1060.24C294.056 1100.29 344.167 1176.99 398.681 1133.4Z"/><path fill="#609DC4" transform="scale(0.0332031 0.0332031)" d="M662.486 54.6362C624.562 56.6744 623.366 91.311 625.553 120.23C632.74 127.738 639.738 135.429 646.538 143.3C649.955 142.017 658.057 143.508 665.721 144.918C669.511 145.616 673.193 146.293 676.15 146.606C710.212 131.79 728.631 98.7168 698.951 68.8375C689.345 59.0716 676.085 53.91 662.486 54.6362Z"/></g></svg>